<?xml version="1.0" standalone="no"?>
<!DOCTYPE svg PUBLIC "-//W3C//DTD SVG 20010904//EN"
 "http://www.w3.org/TR/2001/REC-SVG-20010904/DTD/svg10.dtd">
<svg version="1.0" xmlns="http://www.w3.org/2000/svg"
 width="800.000000pt" height="800.000000pt" viewBox="0 0 800.000000 800.000000"
 preserveAspectRatio="xMidYMid meet">

<g transform="translate(0.000000,800.000000) scale(0.100000,-0.100000)"
fill="#000000" stroke="none">
<path d="M0 4000 l0 -4000 4000 0 4000 0 0 4000 0 4000 -4000 0 -4000 0 0
-4000z m4992 2537 l3 -374 30 -49 c19 -30 49 -60 79 -79 l49 -30 384 -3 383
-3 0 -2375 0 -2374 -21 -45 c-24 -50 -64 -88 -116 -110 -53 -22 -3513 -22
-3566 0 -52 22 -92 60 -116 110 l-21 45 0 2745 0 2745 21 44 c24 51 51 79 105
106 38 19 67 19 1411 20 l1372 0 3 -373z m576 -445 c-192 -2 -326 1 -348 7
-49 15 -105 63 -129 114 -20 41 -21 59 -21 368 l0 324 405 -405 405 -405 -312
-3z"/>
<path d="M3360 4847 c-49 -16 -133 -102 -148 -153 -25 -85 -11 -158 44 -237
88 -123 288 -123 377 1 84 115 77 233 -18 327 -70 71 -159 92 -255 62z m89
-91 c38 -38 37 -105 -2 -143 -23 -23 -36 -28 -77 -28 -41 0 -54 5 -77 28 -50
50 -33 140 32 168 35 15 96 3 124 -25z"/>
<path d="M4260 4847 c-49 -16 -133 -102 -148 -153 -25 -87 -12 -157 45 -236
89 -124 289 -124 377 -1 82 117 75 234 -19 328 -70 71 -159 92 -255 62z m79
-92 c21 -20 26 -35 26 -75 0 -68 -35 -105 -100 -105 -64 0 -100 37 -100 104 0
51 20 85 60 102 32 14 87 2 114 -26z"/>
<path d="M3530 4192 c0 -5 5 -35 11 -68 14 -78 61 -164 119 -218 244 -228 629
-87 673 247 l7 47 -405 0 c-223 0 -405 -4 -405 -8z"/>
</g>
</svg>
